<svg id="Capa_1" enable-background="new 0 0 512 512" height="512" viewBox="0 0 512 512" width="512" xmlns="http://www.w3.org/2000/svg" xmlns:xlink="http://www.w3.org/1999/xlink"><linearGradient id="SVGID_1_" gradientUnits="userSpaceOnUse" x1="74.981" x2="437.019" y1="74.981" y2="437.019"><stop offset="0" stop-color="#95e0db"/><stop offset="1" stop-color="#70c7c7"/></linearGradient><linearGradient id="SVGID_2_" gradientUnits="userSpaceOnUse" x1="151.747" x2="360.253" y1="256" y2="256"><stop offset="0" stop-color="#717687"/><stop offset="1" stop-color="#575a65"/></linearGradient><linearGradient id="lg1"><stop offset="0" stop-color="#d24611"/><stop offset="1" stop-color="#b4370d"/></linearGradient><linearGradient id="SVGID_3_" gradientUnits="userSpaceOnUse" x1="338.022" x2="354.911" xlink:href="#lg1" y1="323.406" y2="323.406"/><linearGradient id="SVGID_4_" gradientUnits="userSpaceOnUse" x1="284.869" x2="408.064" y1="323.406" y2="323.406"><stop offset="0" stop-color="#e06a24"/><stop offset="1" stop-color="#c94012"/></linearGradient><linearGradient id="SVGID_5_" gradientUnits="userSpaceOnUse" x1="318.208" x2="336.526" xlink:href="#lg1" y1="294.874" y2="294.874"/><linearGradient id="SVGID_6_" gradientUnits="userSpaceOnUse" x1="368.729" x2="391.878" xlink:href="#lg1" y1="332.509" y2="332.509"/><linearGradient id="SVGID_7_" gradientUnits="userSpaceOnUse" x1="364.668" x2="380.304" xlink:href="#lg1" y1="290.275" y2="290.275"/><linearGradient id="SVGID_8_" gradientUnits="userSpaceOnUse" x1="311.364" x2="339.979" xlink:href="#lg1" y1="351.617" y2="351.617"/><linearGradient id="SVGID_9_" gradientUnits="userSpaceOnUse" x1="204.629" x2="307.371" y1="151.778" y2="151.778"><stop offset="0" stop-color="#fff"/><stop offset="1" stop-color="#e9ecf4"/></linearGradient><g><g><g><g><g><g><g><circle cx="256" cy="256" fill="url(#SVGID_1_)" r="256"/></g></g></g></g></g></g><g><path d="m180.093 67.426-28.346 98.198 34.016 278.95h140.474l34.016-278.95-28.346-98.198z" fill="url(#SVGID_2_)"/></g><g><g><g><path d="m338.022 242.081h16.889v162.649h-16.889z" fill="url(#SVGID_3_)"/></g></g><g><g><path d="m265.141 314.961h162.65v16.889h-162.65z" fill="#d24611"/></g></g><g><g><path d="m346.482 314.961h81.309v16.889h-81.309z" fill="#b4370d"/></g></g><g><g><path d="m265.142 314.961h162.649v16.889h-162.649z" fill="#d24611" transform="matrix(.707 -.707 .707 .707 -127.204 339.72)"/></g></g><g><g><path d="m398 259.929-51.518 51.519v23.884l63.461-63.461z" fill="#b4370d"/></g></g><g><g><path d="m338.022 242.081h16.889v162.649h-16.889z" fill="#d24611" transform="matrix(.707 -.707 .707 .707 -127.205 339.711)"/></g></g><g><g><path d="m409.943 374.94-63.461-63.461v23.885l51.518 51.518z" fill="#b4370d"/></g></g><g><g><circle cx="346.466" cy="323.406" fill="url(#SVGID_4_)" r="61.597"/></g></g><g><g><circle cx="327.367" cy="294.873" fill="url(#SVGID_5_)" r="9.159"/></g></g><g><g><circle cx="380.303" cy="332.509" fill="url(#SVGID_6_)" r="11.575"/></g></g><g><g><circle cx="372.486" cy="290.275" fill="url(#SVGID_7_)" r="7.818"/></g></g><g><g><circle cx="325.672" cy="351.617" fill="url(#SVGID_8_)" r="14.308"/></g></g></g><g><path d="m256 95.505c-28.372 0-51.371 23-51.371 51.371v23.167c0 8.623 5.808 15.889 13.725 18.101v11.132c0 4.846 3.929 8.775 8.775 8.775h57.741c4.846 0 8.775-3.929 8.775-8.775v-11.132c7.917-2.212 13.725-9.478 13.725-18.101v-23.167c.001-28.371-22.998-51.371-51.37-51.371zm-18.22 75.722c-9.208 3.408-19.191-.635-22.298-9.03s1.838-17.964 11.046-21.372 19.191.635 22.298 9.031c3.107 8.395-1.838 17.963-11.046 21.371zm58.738-9.03c-3.107 8.395-13.09 12.438-22.298 9.03-9.207-3.408-14.153-12.976-11.046-21.371s13.091-12.438 22.298-9.031 14.153 12.977 11.046 21.372z" fill="url(#SVGID_9_)"/></g></g></svg>